<svg width="163" height="60" viewBox="0 0 163 60" fill="none" xmlns="http://www.w3.org/2000/svg">
<path d="M30 60C46.5685 60 60 46.5686 60 30C60 13.4315 46.5685 3.05176e-05 30 3.05176e-05C13.4315 3.05176e-05 0 13.4315 0 30C0 46.5686 13.4315 60 30 60Z" fill="#FB5D00"/>
<path d="M60 30C60 29.5099 59.9862 29.0233 59.9629 28.5391C59.8884 28.4629 59.8159 28.3812 59.7396 28.3158C59.6179 28.176 43.0692 11.6274 42.942 11.5176C42.4385 10.941 41.8841 10.6008 41.3016 10.6008C40.1339 10.6008 39.0804 11.9616 38.3237 13.8745C35.8073 12.5364 32.9375 11.775 29.8889 11.775C27.5645 11.775 25.347 12.2227 23.3075 13.0254C23.2337 12.8826 22.7621 12.4014 22.5923 12.3324C22.4921 12.084 22.2504 11.9082 21.9666 11.9082C21.5927 11.9082 21.2898 12.2112 21.2898 12.5849V13.3019C21.2166 13.2059 20.436 12.4013 20.2662 12.3323C20.166 12.0838 19.9248 11.9081 19.6404 11.9081C19.2666 11.9081 18.9636 12.2111 18.9636 12.5848V13.3018C18.8904 13.2058 18.1098 12.4006 17.94 12.3322C17.8398 12.0837 17.5986 11.9079 17.3142 11.9079C16.9404 11.9079 16.6375 12.211 16.6375 12.5847V13.3017C16.5642 13.2057 15.7836 12.4005 15.6138 12.332C15.5136 12.0836 15.2719 11.9078 14.988 11.9078C14.6142 11.9078 14.3113 12.2109 14.3113 12.5846V20.7061L14.3101 20.744L14.3119 20.7686C12.7788 23.4165 11.8975 26.4878 11.8975 29.7674C11.8975 34.4984 13.7263 38.8005 16.7119 42.0122C16.5619 43.169 16.4586 44.0409 16.4586 44.2844V47.2507L16.4467 47.3707C16.4467 48.0259 16.7629 48.6025 17.2453 48.9734C17.3534 49.1138 27.9301 59.6905 28.0705 59.7986L28.2139 59.942C28.8042 59.9772 29.3994 60 30 60C46.5684 60 60 46.5685 60 30Z" fill="#E73B00"/>
<path d="M29.8884 47.7609C39.8255 47.7609 47.8812 39.7052 47.8812 29.768C47.8812 19.8308 39.8255 11.7751 29.8884 11.7751C19.9512 11.7751 11.8955 19.8308 11.8955 29.768C11.8955 39.7052 19.9512 47.7609 29.8884 47.7609Z" fill="white"/>
<path d="M29.8885 44.1859C37.8514 44.1859 44.3066 37.7307 44.3066 29.7678C44.3066 21.8049 37.8514 15.3498 29.8885 15.3498C21.9256 15.3498 15.4705 21.8049 15.4705 29.7678C15.4705 37.7307 21.9256 44.1859 29.8885 44.1859Z" fill="#D6EAF0"/>
<path d="M29.8885 41.1799C36.1912 41.1799 41.3005 36.0706 41.3005 29.7679C41.3005 23.4653 36.1912 18.356 29.8885 18.356C23.5859 18.356 18.4766 23.4653 18.4766 29.7679C18.4766 36.0706 23.5859 41.1799 29.8885 41.1799Z" fill="white"/>
<path d="M37.134 20.28C37.134 23.5566 40.6969 24.6858 40.6969 25.56C40.6969 27.9504 40.6969 28.7754 40.6969 32.5308C40.6969 33.3882 39.2833 42.9174 39.2833 43.8204V46.7868L39.2713 46.9068C39.2713 48.027 40.1791 48.9349 41.2993 48.9349C42.4195 48.9349 43.3274 48.027 43.3274 46.9068L43.3202 46.8402V43.8024C43.3124 42.9072 41.9066 33.3822 41.9066 32.5302C41.9066 28.5414 41.9066 28.0231 41.9066 25.56C41.9066 24.6858 45.4695 23.5566 45.4695 20.28C45.4695 15.8785 43.6035 10.6008 41.3025 10.6008C39 10.6008 37.134 15.8791 37.134 20.28Z" fill="#AADDEE"/>
<path d="M41.3015 48.9349C42.4205 48.9337 43.3265 48.0264 43.3265 46.9068L43.32 46.8402V43.8024C43.3121 42.9072 41.9063 33.3822 41.9063 32.5302C41.9063 28.5414 41.9063 28.0231 41.9063 25.56C41.9063 24.6858 45.4692 23.5566 45.4692 20.28C45.4692 15.8785 43.6032 10.6008 41.3022 10.6008V48.9349H41.3015Z" fill="#38B5C7"/>
<path d="M17.9897 12.585C17.9897 12.2111 17.6867 11.9082 17.3129 11.9082C16.9392 11.9082 16.6362 12.2113 16.6362 12.585V20.7065H15.6635V12.585C15.6635 12.2111 15.3605 11.9082 14.9868 11.9082C14.6129 11.9082 14.31 12.2113 14.31 12.585V20.7065L14.3088 20.7444C14.3088 24.0209 17.8717 25.1502 17.8717 26.0244V32.9952C17.8717 33.8525 16.4581 43.3817 16.4581 44.2848V47.2511L16.4461 47.3711C16.4461 48.4913 17.354 49.3992 18.4742 49.3992C19.5943 49.3992 20.5022 48.4913 20.5022 47.3711L20.4956 47.3046V44.2674C20.4878 43.3722 19.082 33.8472 19.082 32.9953V26.0245C19.082 25.1503 22.6449 24.0211 22.6449 20.7445L22.6437 20.7066H22.6449V12.5851C22.6449 12.2113 22.3418 11.9083 21.9681 11.9083C21.5943 11.9083 21.2913 12.2114 21.2913 12.5851V20.7066H20.3187V12.5851C20.3187 12.2113 20.0156 11.9083 19.6419 11.9083C19.2681 11.9083 18.9652 12.2114 18.9652 12.5851V20.7066H17.9925V12.5851L17.9897 12.585Z" fill="#AADDEE"/>
<path d="M20.3166 12.585C20.3166 12.2111 20.0136 11.9082 19.6399 11.9082C19.2661 11.9082 18.9631 12.2113 18.9631 12.585V20.7065H18.4766V49.3985C19.5956 49.3967 20.5016 48.49 20.5016 47.3704L20.495 47.3039V44.2667C20.4871 43.3715 19.0814 33.8465 19.0814 32.9946V26.0244C19.0814 25.1502 22.6442 24.0209 22.6442 20.7444L22.643 20.7065H22.6442V12.585C22.6442 12.2111 22.3412 11.9082 21.9675 11.9082C21.5936 11.9082 21.2907 12.2113 21.2907 12.585V20.7065H20.318V12.585H20.3166Z" fill="#38B5C7"/>
<path d="M84.4629 20.3614C84.209 20.2377 83.8737 20.0977 83.457 19.9414C83.0404 19.7852 82.5684 19.6387 82.041 19.502C81.5137 19.3588 80.9408 19.2416 80.3223 19.1504C79.7038 19.0528 79.069 19.0039 78.418 19.0039C77.8971 19.0039 77.4512 19.0202 77.0801 19.0528C76.7155 19.0853 76.4062 19.1276 76.1523 19.1797C75.9049 19.2318 75.7064 19.2937 75.5566 19.3653C75.4134 19.4304 75.3027 19.4987 75.2246 19.5703C75.1465 19.642 75.0944 19.7136 75.0684 19.7852C75.0488 19.8568 75.0391 19.9219 75.0391 19.9805C75.0391 20.1758 75.1367 20.3483 75.332 20.4981C75.5273 20.6413 75.7943 20.7715 76.1328 20.8887C76.4714 20.9994 76.8652 21.1068 77.3145 21.211C77.7637 21.3086 78.2389 21.4128 78.7402 21.5235C79.248 21.6276 79.7689 21.7448 80.3027 21.875C80.8431 21.9987 81.3639 22.1452 81.8652 22.3145C82.373 22.4838 82.8516 22.6823 83.3008 22.9102C83.75 23.1315 84.1439 23.392 84.4824 23.6914C84.821 23.9909 85.0879 24.336 85.2832 24.7266C85.4785 25.1172 85.5762 25.5632 85.5762 26.0645C85.5762 26.709 85.4622 27.2624 85.2344 27.7246C85.0065 28.1869 84.7005 28.5775 84.3164 28.8965C83.9388 29.2155 83.4993 29.4727 82.998 29.668C82.4967 29.8568 81.9694 30.0033 81.416 30.1075C80.8691 30.2116 80.3125 30.28 79.7461 30.3125C79.1862 30.3451 78.6523 30.3614 78.1445 30.3614C76.8164 30.3614 75.5859 30.2507 74.4531 30.0293C73.3268 29.8145 72.3307 29.5443 71.4648 29.2188V26.0157C72.3568 26.5104 73.3724 26.8978 74.5117 27.1778C75.6576 27.4577 76.8815 27.5977 78.1836 27.5977C78.9518 27.5977 79.5768 27.5586 80.0586 27.4805C80.5469 27.3959 80.9277 27.2917 81.2012 27.168C81.4746 27.0378 81.6602 26.8978 81.7578 26.7481C81.8555 26.5983 81.9043 26.4551 81.9043 26.3184C81.9043 26.1035 81.8066 25.918 81.6113 25.7617C81.416 25.599 81.1491 25.459 80.8105 25.3418C80.472 25.2181 80.0781 25.1075 79.6289 25.0098C79.1797 24.9056 78.7012 24.8047 78.1934 24.7071C77.6921 24.6029 77.1745 24.4922 76.6406 24.375C76.1068 24.2578 75.5859 24.1211 75.0781 23.9649C74.5768 23.8021 74.1016 23.6166 73.6523 23.4082C73.2031 23.1934 72.8092 22.9427 72.4707 22.6563C72.1322 22.3633 71.8652 22.028 71.6699 21.6504C71.4746 21.2663 71.377 20.8236 71.377 20.3223C71.377 19.7298 71.4811 19.2188 71.6895 18.7891C71.8978 18.3594 72.1777 17.9948 72.5293 17.6953C72.8874 17.3894 73.2975 17.142 73.7598 16.9532C74.2285 16.7644 74.7201 16.6179 75.2344 16.5137C75.7487 16.4095 76.2695 16.3379 76.7969 16.2989C77.3242 16.2598 77.8255 16.2403 78.3008 16.2403C78.8216 16.2403 79.3555 16.2663 79.9023 16.3184C80.4557 16.3705 80.9993 16.4453 81.5332 16.543C82.0671 16.6341 82.5814 16.7416 83.0762 16.8653C83.5775 16.989 84.0397 17.1192 84.4629 17.2559V20.3614ZM89.0137 30V16.5821H92.6367V30H89.0137ZM117.109 30C117.044 29.2709 116.868 28.6328 116.582 28.086C116.296 27.5326 115.934 27.0573 115.498 26.6602C115.068 26.2631 114.58 25.9343 114.033 25.6739C113.493 25.4134 112.936 25.2084 112.363 25.0586C111.79 24.9024 111.217 24.795 110.645 24.7364C110.078 24.6713 109.551 24.6387 109.062 24.6387H107.988V30H104.365V16.5821H107.988V21.7578H108.73C109.232 21.7578 109.756 21.7188 110.303 21.6407C110.85 21.5625 111.39 21.4388 111.924 21.2696C112.464 21.1003 112.982 20.8822 113.477 20.6153C113.971 20.3483 114.414 20.0228 114.805 19.6387C115.195 19.2546 115.521 18.8119 115.781 18.3106C116.042 17.8028 116.204 17.2266 116.27 16.5821H119.961C119.896 17.2917 119.753 17.933 119.531 18.5059C119.316 19.0788 119.046 19.5931 118.721 20.0489C118.402 20.4981 118.044 20.892 117.646 21.2305C117.249 21.569 116.842 21.862 116.426 22.1094C116.009 22.3503 115.592 22.5521 115.176 22.7149C114.766 22.8711 114.382 22.9916 114.023 23.0762C114.479 23.1478 114.951 23.2617 115.439 23.418C115.934 23.5677 116.423 23.7696 116.904 24.0235C117.386 24.2709 117.845 24.5769 118.281 24.9414C118.724 25.306 119.121 25.7325 119.473 26.2207C119.824 26.709 120.117 27.2657 120.352 27.8907C120.586 28.5157 120.736 29.2188 120.801 30H117.109ZM135.293 30V28.6817C134.831 28.9356 134.333 29.1602 133.799 29.3555C133.271 29.5508 132.721 29.7168 132.148 29.8535C131.576 29.9903 130.983 30.0912 130.371 30.1563C129.766 30.2279 129.154 30.2637 128.535 30.2637C127.812 30.2637 127.113 30.1953 126.436 30.0586C125.765 29.9219 125.169 29.7006 124.648 29.3946C124.128 29.0886 123.708 28.6882 123.389 28.1934C123.076 27.6986 122.92 27.0931 122.92 26.377C122.92 25.472 123.167 24.7201 123.662 24.1211C124.157 23.5157 124.912 23.0209 125.928 22.6367C126.943 22.2526 128.226 21.9564 129.775 21.7481C131.331 21.5397 133.171 21.377 135.293 21.2598V20.9766C135.293 20.7552 135.234 20.5371 135.117 20.3223C135 20.1009 134.785 19.9089 134.473 19.7461C134.167 19.5769 133.743 19.4401 133.203 19.336C132.669 19.2318 131.986 19.1797 131.152 19.1797C130.495 19.1797 129.844 19.2155 129.199 19.2871C128.561 19.3522 127.943 19.4434 127.344 19.5606C126.751 19.6778 126.188 19.8145 125.654 19.9707C125.12 20.127 124.635 20.2897 124.199 20.459V17.2364C124.655 17.1192 125.166 17.0052 125.732 16.8946C126.299 16.7839 126.888 16.6895 127.5 16.6114C128.112 16.5267 128.73 16.4616 129.355 16.416C129.98 16.364 130.579 16.3379 131.152 16.3379C132.279 16.3379 133.317 16.4323 134.268 16.6211C135.218 16.8034 136.035 17.0899 136.719 17.4805C137.409 17.8711 137.946 18.3659 138.33 18.9649C138.721 19.5638 138.916 20.2767 138.916 21.1035V30H135.293ZM135.293 23.877C133.9 23.9291 132.715 24.0039 131.738 24.1016C130.768 24.1992 129.961 24.3132 129.316 24.4434C128.672 24.5736 128.164 24.7136 127.793 24.8633C127.428 25.0131 127.155 25.166 126.973 25.3223C126.79 25.4785 126.676 25.6348 126.631 25.791C126.592 25.9473 126.572 26.0905 126.572 26.2207C126.572 26.377 126.615 26.53 126.699 26.6797C126.784 26.8229 126.93 26.9499 127.139 27.0606C127.354 27.1713 127.637 27.2591 127.988 27.3242C128.34 27.3894 128.783 27.4219 129.316 27.4219C129.909 27.4219 130.488 27.3763 131.055 27.2852C131.621 27.194 132.158 27.0703 132.666 26.9141C133.174 26.7513 133.649 26.5625 134.092 26.3477C134.541 26.1263 134.941 25.892 135.293 25.6446V23.877ZM160.42 23.3008C160.42 24.4532 160.208 25.472 159.785 26.3575C159.362 27.2364 158.757 27.972 157.969 28.5645C157.181 29.1569 156.224 29.6062 155.098 29.9121C153.978 30.2116 152.718 30.3614 151.318 30.3614C149.919 30.3614 148.652 30.2116 147.52 29.9121C146.393 29.6062 145.433 29.1569 144.639 28.5645C143.844 27.972 143.232 27.2364 142.803 26.3575C142.373 25.472 142.158 24.4532 142.158 23.3008C142.158 22.1485 142.373 21.1328 142.803 20.2539C143.232 19.3685 143.844 18.6296 144.639 18.0371C145.433 17.4447 146.393 16.9987 147.52 16.6992C148.652 16.3933 149.919 16.2403 151.318 16.2403C152.718 16.2403 153.978 16.3933 155.098 16.6992C156.224 16.9987 157.181 17.4447 157.969 18.0371C158.757 18.6296 159.362 19.3685 159.785 20.2539C160.208 21.1328 160.42 22.1485 160.42 23.3008ZM156.758 23.3008C156.758 22.7995 156.676 22.3015 156.514 21.8067C156.357 21.3054 156.074 20.8562 155.664 20.459C155.26 20.0619 154.707 19.7396 154.004 19.4922C153.301 19.2448 152.406 19.1211 151.318 19.1211C150.589 19.1211 149.948 19.1797 149.395 19.2969C148.841 19.4076 148.363 19.5638 147.959 19.7657C147.555 19.9675 147.217 20.2051 146.943 20.4785C146.67 20.7455 146.452 21.0352 146.289 21.3477C146.126 21.6537 146.009 21.9759 145.938 22.3145C145.872 22.6465 145.84 22.9753 145.84 23.3008C145.84 23.6328 145.872 23.9681 145.938 24.3067C146.009 24.6452 146.126 24.9707 146.289 25.2832C146.452 25.5892 146.67 25.8757 146.943 26.1426C147.217 26.4095 147.555 26.6439 147.959 26.8457C148.363 27.041 148.841 27.1973 149.395 27.3145C149.948 27.4252 150.589 27.4805 151.318 27.4805C152.406 27.4805 153.301 27.3568 154.004 27.1094C154.707 26.862 155.26 26.5397 155.664 26.1426C156.074 25.7455 156.357 25.2995 156.514 24.8047C156.676 24.3034 156.758 23.8021 156.758 23.3008Z" fill="url(#paint0_linear_149_50)"/>
<path d="M74.2584 36.612H77.2344C78.0584 36.612 78.6664 36.792 79.0584 37.152C79.4584 37.512 79.6584 38.056 79.6584 38.784C79.6584 39.4 79.4584 39.908 79.0584 40.308C78.6664 40.7 78.0904 40.904 77.3304 40.92L79.6704 45H79.3224L76.9824 40.92H74.5944V45H74.2584V36.612ZM77.2704 40.632C77.9184 40.632 78.4264 40.476 78.7944 40.164C79.1624 39.844 79.3464 39.384 79.3464 38.784C79.3464 38.104 79.1664 37.62 78.8064 37.332C78.4464 37.044 77.9384 36.9 77.2824 36.9H74.5944V40.632H77.2704ZM83.1483 36.612H88.2723V36.9H83.4843V40.656H87.1203V40.944H83.4843V44.712H88.2723V45H83.1483V36.612ZM93.8089 45.18C93.3769 45.18 92.9529 45.144 92.5369 45.072C92.1289 45 91.7889 44.908 91.5169 44.796V44.496C92.1969 44.76 92.9609 44.892 93.8089 44.892C95.4649 44.892 96.2929 44.284 96.2929 43.068C96.2929 42.668 96.2089 42.34 96.0409 42.084C95.8809 41.828 95.6369 41.612 95.3089 41.436C94.9889 41.252 94.5169 41.048 93.8929 40.824C93.0849 40.528 92.5049 40.204 92.1529 39.852C91.8009 39.492 91.6249 39.02 91.6249 38.436C91.6249 37.828 91.8529 37.344 92.3089 36.984C92.7729 36.616 93.3889 36.432 94.1569 36.432C94.5649 36.432 94.9329 36.464 95.2609 36.528C95.5969 36.584 95.9289 36.68 96.2569 36.816V37.116C95.9209 36.98 95.5849 36.88 95.2489 36.816C94.9129 36.752 94.5489 36.72 94.1569 36.72C93.4609 36.72 92.9169 36.88 92.5249 37.2C92.1329 37.52 91.9369 37.932 91.9369 38.436C91.9369 38.788 92.0049 39.088 92.1409 39.336C92.2769 39.576 92.5009 39.8 92.8129 40.008C93.1249 40.208 93.5649 40.412 94.1329 40.62C94.7489 40.852 95.2169 41.052 95.5369 41.22C95.8569 41.388 96.1129 41.62 96.3049 41.916C96.5049 42.204 96.6049 42.588 96.6049 43.068C96.6049 43.748 96.3649 44.272 95.8849 44.64C95.4129 45 94.7209 45.18 93.8089 45.18ZM102.156 36.9H99.2995V36.612H105.348V36.9H102.492V45H102.156V36.9ZM110.195 36.612H110.459L113.807 45H113.471L112.439 42.42H108.215L107.183 45H106.847L110.195 36.612ZM112.319 42.132L110.327 37.116L108.335 42.132H112.319ZM119.565 45.18C118.541 45.18 117.765 44.928 117.237 44.424C116.709 43.912 116.445 43.188 116.445 42.252V36.612H116.781V42.372C116.781 43.228 117.033 43.864 117.537 44.28C118.041 44.688 118.717 44.892 119.565 44.892C120.413 44.892 121.089 44.688 121.593 44.28C122.097 43.864 122.349 43.228 122.349 42.372V36.612H122.685V42.252C122.685 43.188 122.421 43.912 121.893 44.424C121.365 44.928 120.589 45.18 119.565 45.18ZM126.344 36.612H129.32C130.144 36.612 130.752 36.792 131.144 37.152C131.544 37.512 131.744 38.056 131.744 38.784C131.744 39.4 131.544 39.908 131.144 40.308C130.752 40.7 130.176 40.904 129.416 40.92L131.756 45H131.408L129.068 40.92H126.68V45H126.344V36.612ZM129.356 40.632C130.004 40.632 130.512 40.476 130.88 40.164C131.248 39.844 131.432 39.384 131.432 38.784C131.432 38.104 131.252 37.62 130.892 37.332C130.532 37.044 130.024 36.9 129.368 36.9H126.68V40.632H129.356ZM137.802 36.612H138.066L141.414 45H141.078L140.046 42.42H135.822L134.79 45H134.454L137.802 36.612ZM139.926 42.132L137.934 37.116L135.942 42.132H139.926ZM144.897 36.612H145.197L150.597 44.376V36.612H150.933V45H150.645L145.233 37.212V45H144.897V36.612ZM157.03 36.9H154.174V36.612H160.222V36.9H157.366V45H157.03V36.9Z" fill="black"/>
<defs>
<linearGradient id="paint0_linear_149_50" x1="72.3326" y1="35" x2="160.87" y2="35" gradientUnits="userSpaceOnUse">
<stop stop-color="#E73B00"/>
<stop offset="1" stop-color="#FFC003"/>
</linearGradient>
</defs>
</svg>
