<svg width="1615" height="611" viewBox="0 0 1615 611" fill="none" xmlns="http://www.w3.org/2000/svg">
<g clip-path="url(#clip0_149_48)">
<path d="M305.5 611C474.223 611 611 474.223 611 305.5C611 136.777 474.223 0 305.5 0C136.777 0 0 136.777 0 305.5C0 474.223 136.777 611 305.5 611Z" fill="#FB5D00"/>
<path d="M611 305.5C611 300.508 610.859 295.553 610.622 290.622C609.864 289.847 609.125 289.015 608.348 288.349C607.108 286.925 438.588 118.405 437.292 117.287C432.165 111.415 426.52 107.951 420.588 107.951C408.697 107.951 397.969 121.808 390.263 141.288C364.638 127.662 335.414 119.909 304.369 119.909C280.698 119.909 258.116 124.467 237.348 132.642C236.597 131.187 231.794 126.287 230.065 125.584C229.045 123.054 226.583 121.264 223.693 121.264C219.886 121.264 216.801 124.35 216.801 128.156V135.457C216.055 134.48 208.106 126.286 206.377 125.583C205.357 123.053 202.901 121.263 200.005 121.263C196.198 121.263 193.113 124.349 193.113 128.155V135.456C192.367 134.478 184.418 126.279 182.689 125.582C181.669 123.052 179.213 121.262 176.316 121.262C172.51 121.262 169.425 124.348 169.425 128.154V135.455C168.679 134.477 160.73 126.278 159.001 125.581C157.98 123.051 155.519 121.261 152.628 121.261C148.821 121.261 145.737 124.347 145.737 128.152V210.857L145.725 211.242L145.743 211.493C130.131 238.457 121.156 269.734 121.156 303.131C121.156 351.308 139.779 395.118 170.183 427.824C168.655 439.604 167.604 448.482 167.604 450.962V481.17L167.482 482.392C167.482 489.064 170.702 494.935 175.615 498.712C176.715 500.142 284.422 607.848 285.851 608.949L287.312 610.409C293.323 610.767 299.384 611 305.5 611C474.222 611 611 474.222 611 305.5Z" fill="#E73B00"/>
<path d="M304.364 486.363C405.558 486.363 487.591 404.329 487.591 303.136C487.591 201.942 405.558 119.909 304.364 119.909C203.17 119.909 121.137 201.942 121.137 303.136C121.137 404.329 203.17 486.363 304.364 486.363Z" fill="white"/>
<path d="M304.364 449.96C385.452 449.96 451.188 384.225 451.188 303.136C451.188 222.048 385.452 156.312 304.364 156.312C223.275 156.312 157.54 222.048 157.54 303.136C157.54 384.225 223.275 449.96 304.364 449.96Z" fill="#D6EAF0"/>
<path d="M304.364 419.348C368.546 419.348 420.576 367.318 420.576 303.136C420.576 238.954 368.546 186.924 304.364 186.924C240.182 186.924 188.152 238.954 188.152 303.136C188.152 367.318 240.182 419.348 304.364 419.348Z" fill="white"/>
<path d="M378.148 206.518C378.148 239.884 414.43 251.383 414.43 260.286C414.43 284.628 414.43 293.029 414.43 331.272C414.43 340.002 400.034 437.042 400.034 446.238V476.445L399.913 477.667C399.913 489.074 409.158 498.319 420.565 498.319C431.972 498.319 441.217 489.074 441.217 477.667L441.144 476.989V446.054C441.064 436.938 426.749 339.941 426.749 331.266C426.749 290.646 426.749 285.368 426.749 260.286C426.749 251.383 463.031 239.884 463.031 206.518C463.031 161.695 444.029 107.951 420.597 107.951C397.15 107.951 378.148 161.701 378.148 206.518Z" fill="#AADDEE"/>
<path d="M420.588 498.319C431.983 498.307 441.209 489.068 441.209 477.667L441.142 476.989V446.054C441.062 436.938 426.747 339.941 426.747 331.266C426.747 290.646 426.747 285.368 426.747 260.286C426.747 251.383 463.028 239.884 463.028 206.518C463.028 161.695 444.026 107.951 420.595 107.951V498.319H420.588Z" fill="#38B5C7"/>
<path d="M183.196 128.157C183.196 124.35 180.11 121.266 176.304 121.266C172.499 121.266 169.413 124.352 169.413 128.157V210.862H159.508V128.157C159.508 124.35 156.422 121.266 152.616 121.266C148.809 121.266 145.725 124.352 145.725 128.157V210.862L145.713 211.247C145.713 244.614 181.994 256.113 181.994 265.015V336.001C181.994 344.732 167.599 441.771 167.599 450.967V481.174L167.477 482.396C167.477 493.804 176.722 503.049 188.129 503.049C199.537 503.049 208.782 493.804 208.782 482.396L208.715 481.719V450.79C208.635 441.674 194.319 344.678 194.319 336.002V265.017C194.319 256.114 230.601 244.615 230.601 211.249L230.589 210.863H230.601V128.158C230.601 124.352 227.515 121.267 223.709 121.267C219.903 121.267 216.818 124.353 216.818 128.158V210.863H206.913V128.158C206.913 124.352 203.827 121.267 200.021 121.267C196.214 121.267 193.13 124.353 193.13 128.158V210.863H183.225V128.158L183.196 128.157Z" fill="#AADDEE"/>
<path d="M206.89 128.157C206.89 124.35 203.804 121.266 199.999 121.266C196.192 121.266 193.107 124.352 193.107 128.157V210.862H188.152V503.042C199.547 503.024 208.773 493.791 208.773 482.389L208.707 481.711V450.783C208.627 441.667 194.311 344.671 194.311 335.995V265.015C194.311 256.113 230.593 244.614 230.593 211.247L230.581 210.862H230.593V128.157C230.593 124.35 227.507 121.266 223.701 121.266C219.894 121.266 216.809 124.352 216.809 128.157V210.862H206.905V128.157H206.89Z" fill="#38B5C7"/>
</g>
<path d="M842.629 191.613C840.09 190.376 836.737 188.977 832.57 187.414C828.404 185.852 823.684 184.387 818.41 183.02C813.137 181.587 807.408 180.415 801.223 179.504C795.038 178.527 788.69 178.039 782.18 178.039C776.971 178.039 772.512 178.202 768.801 178.527C765.155 178.853 762.062 179.276 759.523 179.797C757.049 180.318 755.064 180.936 753.566 181.652C752.134 182.303 751.027 182.987 750.246 183.703C749.465 184.419 748.944 185.135 748.684 185.852C748.488 186.568 748.391 187.219 748.391 187.805C748.391 189.758 749.367 191.483 751.32 192.98C753.273 194.413 755.943 195.715 759.328 196.887C762.714 197.993 766.652 199.068 771.145 200.109C775.637 201.086 780.389 202.128 785.402 203.234C790.48 204.276 795.689 205.448 801.027 206.75C806.431 207.987 811.639 209.452 816.652 211.145C821.73 212.837 826.516 214.823 831.008 217.102C835.5 219.315 839.439 221.919 842.824 224.914C846.21 227.909 848.879 231.359 850.832 235.266C852.785 239.172 853.762 243.632 853.762 248.645C853.762 255.09 852.622 260.624 850.344 265.246C848.065 269.868 845.005 273.775 841.164 276.965C837.388 280.155 832.993 282.727 827.98 284.68C822.967 286.568 817.694 288.033 812.16 289.074C806.691 290.116 801.125 290.799 795.461 291.125C789.862 291.451 784.523 291.613 779.445 291.613C766.164 291.613 753.859 290.507 742.531 288.293C731.268 286.145 721.307 283.443 712.648 280.188V248.156C721.568 253.104 731.724 256.978 743.117 259.777C754.576 262.577 766.815 263.977 779.836 263.977C787.518 263.977 793.768 263.586 798.586 262.805C803.469 261.958 807.277 260.917 810.012 259.68C812.746 258.378 814.602 256.978 815.578 255.48C816.555 253.983 817.043 252.551 817.043 251.184C817.043 249.035 816.066 247.18 814.113 245.617C812.16 243.99 809.491 242.59 806.105 241.418C802.72 240.181 798.781 239.074 794.289 238.098C789.797 237.056 785.012 236.047 779.934 235.07C774.921 234.029 769.745 232.922 764.406 231.75C759.068 230.578 753.859 229.211 748.781 227.648C743.768 226.021 739.016 224.165 734.523 222.082C730.031 219.934 726.092 217.427 722.707 214.562C719.322 211.633 716.652 208.28 714.699 204.504C712.746 200.663 711.77 196.236 711.77 191.223C711.77 185.298 712.811 180.188 714.895 175.891C716.978 171.594 719.777 167.948 723.293 164.953C726.874 161.893 730.975 159.419 735.598 157.531C740.285 155.643 745.201 154.178 750.344 153.137C755.487 152.095 760.695 151.379 765.969 150.988C771.242 150.598 776.255 150.402 781.008 150.402C786.216 150.402 791.555 150.663 797.023 151.184C802.557 151.704 807.993 152.453 813.332 153.43C818.671 154.341 823.814 155.415 828.762 156.652C833.775 157.889 838.397 159.191 842.629 160.559V191.613ZM888.137 288V153.82H924.367V288H888.137ZM1169.09 288C1168.44 280.708 1166.68 274.328 1163.82 268.859C1160.96 263.326 1157.34 258.573 1152.98 254.602C1148.68 250.63 1143.8 247.342 1138.33 244.738C1132.93 242.134 1127.36 240.083 1121.63 238.586C1115.9 237.023 1110.17 235.949 1104.45 235.363C1098.78 234.712 1093.51 234.387 1088.62 234.387H1077.88V288H1041.65V153.82H1077.88V205.578H1085.3C1090.32 205.578 1095.56 205.188 1101.03 204.406C1106.5 203.625 1111.9 202.388 1117.24 200.695C1122.64 199.003 1127.82 196.822 1132.77 194.152C1137.71 191.483 1142.14 188.228 1146.05 184.387C1149.95 180.546 1153.21 176.118 1155.81 171.105C1158.42 166.027 1160.04 160.266 1160.7 153.82H1197.61C1196.96 160.917 1195.53 167.329 1193.31 173.059C1191.16 178.788 1188.46 183.931 1185.21 188.488C1182.02 192.98 1178.44 196.919 1174.46 200.305C1170.49 203.69 1166.42 206.62 1162.26 209.094C1158.09 211.503 1153.92 213.521 1149.76 215.148C1145.66 216.711 1141.82 217.915 1138.23 218.762C1142.79 219.478 1147.51 220.617 1152.39 222.18C1157.34 223.677 1162.23 225.695 1167.04 228.234C1171.86 230.708 1176.45 233.768 1180.81 237.414C1185.24 241.06 1189.21 245.324 1192.73 250.207C1196.24 255.09 1199.17 260.656 1201.52 266.906C1203.86 273.156 1205.36 280.188 1206.01 288H1169.09ZM1350.93 288V274.816C1346.31 277.355 1341.33 279.602 1335.99 281.555C1330.71 283.508 1325.21 285.168 1319.48 286.535C1313.76 287.902 1307.83 288.911 1301.71 289.562C1295.66 290.279 1289.54 290.637 1283.35 290.637C1276.12 290.637 1269.13 289.953 1262.36 288.586C1255.65 287.219 1249.69 285.005 1244.48 281.945C1239.28 278.885 1235.08 274.882 1231.89 269.934C1228.76 264.986 1227.2 258.931 1227.2 251.77C1227.2 242.72 1229.67 235.201 1234.62 229.211C1239.57 223.156 1247.12 218.208 1257.28 214.367C1267.43 210.526 1280.26 207.564 1295.75 205.48C1311.31 203.397 1329.71 201.77 1350.93 200.598V197.766C1350.93 195.552 1350.34 193.371 1349.17 191.223C1348 189.009 1345.85 187.089 1342.73 185.461C1339.67 183.768 1335.43 182.401 1330.03 181.359C1324.69 180.318 1317.86 179.797 1309.52 179.797C1302.95 179.797 1296.44 180.155 1289.99 180.871C1283.61 181.522 1277.43 182.434 1271.44 183.605C1265.51 184.777 1259.88 186.145 1254.54 187.707C1249.2 189.27 1244.35 190.897 1239.99 192.59V160.363C1244.55 159.191 1249.66 158.052 1255.32 156.945C1260.99 155.839 1266.88 154.895 1273 154.113C1279.12 153.267 1285.3 152.616 1291.55 152.16C1297.8 151.639 1303.79 151.379 1309.52 151.379C1320.79 151.379 1331.17 152.323 1340.68 154.211C1350.18 156.034 1358.35 158.898 1365.19 162.805C1372.09 166.711 1377.46 171.659 1381.3 177.648C1385.21 183.638 1387.16 190.767 1387.16 199.035V288H1350.93ZM1350.93 226.77C1337 227.29 1325.15 228.039 1315.38 229.016C1305.68 229.992 1297.61 231.132 1291.16 232.434C1284.72 233.736 1279.64 235.135 1275.93 236.633C1272.28 238.13 1269.55 239.66 1267.73 241.223C1265.9 242.785 1264.76 244.348 1264.31 245.91C1263.92 247.473 1263.72 248.905 1263.72 250.207C1263.72 251.77 1264.15 253.299 1264.99 254.797C1265.84 256.229 1267.3 257.499 1269.39 258.605C1271.54 259.712 1274.37 260.591 1277.88 261.242C1281.4 261.893 1285.83 262.219 1291.16 262.219C1297.09 262.219 1302.88 261.763 1308.55 260.852C1314.21 259.94 1319.58 258.703 1324.66 257.141C1329.74 255.513 1334.49 253.625 1338.92 251.477C1343.41 249.263 1347.41 246.919 1350.93 244.445V226.77ZM1602.2 221.008C1602.2 232.531 1600.08 242.72 1595.85 251.574C1591.62 260.363 1585.57 267.72 1577.69 273.645C1569.81 279.569 1560.24 284.061 1548.98 287.121C1537.78 290.116 1525.18 291.613 1511.18 291.613C1497.19 291.613 1484.52 290.116 1473.2 287.121C1461.93 284.061 1452.33 279.569 1444.39 273.645C1436.44 267.72 1430.32 260.363 1426.03 251.574C1421.73 242.72 1419.58 232.531 1419.58 221.008C1419.58 209.484 1421.73 199.328 1426.03 190.539C1430.32 181.685 1436.44 174.296 1444.39 168.371C1452.33 162.447 1461.93 157.987 1473.2 154.992C1484.52 151.932 1497.19 150.402 1511.18 150.402C1525.18 150.402 1537.78 151.932 1548.98 154.992C1560.24 157.987 1569.81 162.447 1577.69 168.371C1585.57 174.296 1591.62 181.685 1595.85 190.539C1600.08 199.328 1602.2 209.484 1602.2 221.008ZM1565.58 221.008C1565.58 215.995 1564.76 211.014 1563.14 206.066C1561.57 201.053 1558.74 196.561 1554.64 192.59C1550.6 188.618 1545.07 185.396 1538.04 182.922C1531.01 180.448 1522.06 179.211 1511.18 179.211C1503.89 179.211 1497.48 179.797 1491.95 180.969C1486.41 182.076 1481.63 183.638 1477.59 185.656C1473.55 187.674 1470.17 190.051 1467.43 192.785C1464.7 195.454 1462.52 198.352 1460.89 201.477C1459.26 204.536 1458.09 207.759 1457.38 211.145C1456.72 214.465 1456.4 217.753 1456.4 221.008C1456.4 224.328 1456.72 227.681 1457.38 231.066C1458.09 234.452 1459.26 237.707 1460.89 240.832C1462.52 243.892 1464.7 246.757 1467.43 249.426C1470.17 252.095 1473.55 254.439 1477.59 256.457C1481.63 258.41 1486.41 259.973 1491.95 261.145C1497.48 262.251 1503.89 262.805 1511.18 262.805C1522.06 262.805 1531.01 261.568 1538.04 259.094C1545.07 256.62 1550.6 253.397 1554.64 249.426C1558.74 245.454 1561.57 240.995 1563.14 236.047C1564.76 231.034 1565.58 226.021 1565.58 221.008Z" fill="url(#paint0_linear_149_48)"/>
<path d="M718.24 338.528H749.984C758.773 338.528 765.259 340.448 769.44 344.288C773.707 348.128 775.84 353.931 775.84 361.696C775.84 368.267 773.707 373.685 769.44 377.952C765.259 382.133 759.115 384.309 751.008 384.48L775.968 428H772.256L747.296 384.48H721.824V428H718.24V338.528ZM750.368 381.408C757.28 381.408 762.699 379.744 766.624 376.416C770.549 373.003 772.512 368.096 772.512 361.696C772.512 354.443 770.592 349.28 766.752 346.208C762.912 343.136 757.493 341.6 750.496 341.6H721.824V381.408H750.368ZM809.225 338.528H863.881V341.6H812.809V381.664H851.593V384.736H812.809V424.928H863.881V428H809.225V338.528ZM919.098 429.92C914.49 429.92 909.967 429.536 905.53 428.768C901.178 428 897.551 427.019 894.65 425.824V422.624C901.903 425.44 910.053 426.848 919.098 426.848C936.762 426.848 945.594 420.363 945.594 407.392C945.594 403.125 944.698 399.627 942.906 396.896C941.199 394.165 938.597 391.861 935.098 389.984C931.685 388.021 926.65 385.845 919.994 383.456C911.375 380.299 905.189 376.843 901.434 373.088C897.679 369.248 895.802 364.213 895.802 357.984C895.802 351.499 898.234 346.336 903.098 342.496C908.047 338.571 914.618 336.608 922.81 336.608C927.162 336.608 931.087 336.949 934.586 337.632C938.17 338.229 941.711 339.253 945.21 340.704V343.904C941.626 342.453 938.042 341.387 934.458 340.704C930.874 340.021 926.991 339.68 922.81 339.68C915.386 339.68 909.583 341.387 905.402 344.8C901.221 348.213 899.13 352.608 899.13 357.984C899.13 361.739 899.855 364.939 901.306 367.584C902.757 370.144 905.146 372.533 908.474 374.752C911.802 376.885 916.495 379.061 922.554 381.28C929.125 383.755 934.117 385.888 937.53 387.68C940.943 389.472 943.674 391.947 945.722 395.104C947.855 398.176 948.922 402.272 948.922 407.392C948.922 414.645 946.362 420.235 941.242 424.16C936.207 428 928.826 429.92 919.098 429.92ZM1004.29 341.6H973.825V338.528H1038.34V341.6H1007.87V428H1004.29V341.6ZM1086.21 338.528H1089.02L1124.74 428H1121.15L1110.14 400.48H1065.09L1054.08 428H1050.5L1086.21 338.528ZM1108.86 397.408L1087.62 343.904L1066.37 397.408H1108.86ZM1182.3 429.92C1171.38 429.92 1163.1 427.232 1157.47 421.856C1151.84 416.395 1149.02 408.672 1149.02 398.688V338.528H1152.61V399.968C1152.61 409.099 1155.3 415.883 1160.67 420.32C1166.05 424.672 1173.26 426.848 1182.3 426.848C1191.35 426.848 1198.56 424.672 1203.94 420.32C1209.31 415.883 1212 409.099 1212 399.968V338.528H1215.58V398.688C1215.58 408.672 1212.77 416.395 1207.14 421.856C1201.5 427.232 1193.23 429.92 1182.3 429.92ZM1250.77 338.528H1282.52C1291.31 338.528 1297.79 340.448 1301.97 344.288C1306.24 348.128 1308.37 353.931 1308.37 361.696C1308.37 368.267 1306.24 373.685 1301.97 377.952C1297.79 382.133 1291.65 384.309 1283.54 384.48L1308.5 428H1304.79L1279.83 384.48H1254.36V428H1250.77V338.528ZM1282.9 381.408C1289.81 381.408 1295.23 379.744 1299.16 376.416C1303.08 373.003 1305.05 368.096 1305.05 361.696C1305.05 354.443 1303.13 349.28 1299.29 346.208C1295.45 343.136 1290.03 341.6 1283.03 341.6H1254.36V381.408H1282.9ZM1369.16 338.528H1371.98L1407.69 428H1404.11L1393.1 400.48H1348.04L1337.03 428H1333.45L1369.16 338.528ZM1391.82 397.408L1370.57 343.904L1349.32 397.408H1391.82ZM1441 338.528H1444.2L1501.8 421.344V338.528H1505.38V428H1502.31L1444.58 344.928V428H1441V338.528ZM1566.57 341.6H1536.11V338.528H1600.62V341.6H1570.16V428H1566.57V341.6Z" fill="black"/>
<defs>
<linearGradient id="paint0_linear_149_48" x1="721" y1="337" x2="1594" y2="337" gradientUnits="userSpaceOnUse">
<stop stop-color="#E73B00"/>
<stop offset="1" stop-color="#FFC003"/>
</linearGradient>
<clipPath id="clip0_149_48">
<rect width="611" height="611" fill="white"/>
</clipPath>
</defs>
</svg>
